<svg data-v-fde0c5aa="" xmlns="http://www.w3.org/2000/svg" viewBox="0 0 300 300" class="font"><!----><defs data-v-fde0c5aa=""><!----></defs><rect data-v-fde0c5aa="" fill="transparent" x="0" y="0" width="300px" height="300px" class="logo-background-square"></rect><defs data-v-fde0c5aa=""><linearGradient data-v-fde0c5aa="" gradientTransform="rotate(25)" id="a41be007-63ab-4267-a944-045813b9900e" x1="0%" y1="0%" x2="100%" y2="0%"><stop data-v-fde0c5aa="" offset="0%" stop-color="#E90DCA" stop-opacity="1"></stop><stop data-v-fde0c5aa="" offset="100%" stop-color="#1536F1" stop-opacity="1"></stop></linearGradient></defs><g data-v-fde0c5aa="" id="ad06b4e8-2485-4c27-83e9-d77a0996b146" fill="url(#a41be007-63ab-4267-a944-045813b9900e)" transform="matrix(11.95652198701365,0,0,11.95652198701365,31.989130069154882,58.77174157208448)"><path d="M2.84 8.74L0.67 10.11C0.83 10.89 1.31 11.53 2.11 12.01C2.91 12.50 3.79 12.74 4.77 12.74C7.80 12.74 9.31 11.68 9.31 9.55C9.31 9.16 9.23 8.79 9.06 8.43C8.90 8.09 8.69 7.79 8.42 7.55C8.15 7.30 7.90 7.10 7.66 6.94C7.42 6.77 7.17 6.64 6.92 6.54C6.79 6.48 6.61 6.41 6.38 6.31C6.15 6.22 5.98 6.15 5.87 6.10C5.77 6.06 5.65 5.99 5.52 5.91C5.40 5.84 5.31 5.76 5.26 5.68C5.22 5.60 5.19 5.50 5.19 5.39C5.19 4.98 5.51 4.77 6.13 4.77C6.50 4.77 6.79 4.85 7.03 5.00C7.26 5.16 7.48 5.43 7.69 5.82L10.02 4.70C9.90 4.13 9.53 3.63 8.90 3.18C8.28 2.74 7.44 2.52 6.38 2.52C5.14 2.52 4.15 2.80 3.40 3.35C2.64 3.91 2.27 4.67 2.27 5.63C2.27 6.81 3.02 7.74 4.52 8.40C5.10 8.66 5.55 8.91 5.87 9.13C6.18 9.36 6.34 9.59 6.34 9.83C6.34 10.25 5.93 10.46 5.10 10.46C4.62 10.46 4.17 10.30 3.76 9.99C3.34 9.68 3.04 9.26 2.84 8.74ZM11.62 2.80L9.90 12.60L12.42 12.60L12.98 9.38L13.93 9.38L15.57 12.60L18.30 12.60L16.52 9.09C17.32 8.82 17.95 8.38 18.40 7.78C18.84 7.19 19.07 6.46 19.07 5.61C19.07 3.74 17.78 2.80 15.19 2.80ZM13.73 5.11L15.06 5.11C15.51 5.11 15.84 5.16 16.05 5.27C16.26 5.38 16.37 5.57 16.37 5.84C16.37 6.75 15.81 7.21 14.70 7.21L13.37 7.21Z"></path></g><!----><!----></svg>