<svg data-v-423bf9ae="" xmlns="http://www.w3.org/2000/svg" viewBox="0 0 723 107" class="iconLeft"><!----><!----><!----><g data-v-423bf9ae="" id="6a652e5f-3eb2-4fd5-ba9d-f9d02e097c54" fill="black" transform="matrix(5.39083552408516,0,0,5.39083552408516,98.64451813460983,14.095527278705852)"><path d="M2.84 8.74L0.67 10.11C0.83 10.89 1.31 11.53 2.11 12.01C2.91 12.50 3.79 12.74 4.77 12.74C7.80 12.74 9.31 11.68 9.31 9.55C9.31 9.16 9.23 8.79 9.06 8.43C8.90 8.09 8.69 7.79 8.42 7.55C8.15 7.30 7.90 7.10 7.66 6.94C7.42 6.77 7.17 6.64 6.92 6.54C6.79 6.48 6.61 6.41 6.38 6.31C6.15 6.22 5.98 6.15 5.87 6.10C5.77 6.06 5.65 5.99 5.52 5.91C5.40 5.84 5.31 5.76 5.26 5.68C5.22 5.60 5.19 5.50 5.19 5.39C5.19 4.98 5.51 4.77 6.13 4.77C6.50 4.77 6.79 4.85 7.03 5.00C7.26 5.16 7.48 5.43 7.69 5.82L10.02 4.70C9.90 4.13 9.53 3.63 8.90 3.18C8.28 2.74 7.44 2.52 6.38 2.52C5.14 2.52 4.15 2.80 3.40 3.35C2.64 3.91 2.27 4.67 2.27 5.63C2.27 6.81 3.02 7.74 4.52 8.40C5.10 8.66 5.55 8.91 5.87 9.13C6.18 9.36 6.34 9.59 6.34 9.83C6.34 10.25 5.93 10.46 5.10 10.46C4.62 10.46 4.17 10.30 3.76 9.99C3.34 9.68 3.04 9.26 2.84 8.74ZM14.52 10.21C14.38 10.74 14.07 11.00 13.58 11.00C13.32 11.00 13.16 10.93 13.09 10.78C13.02 10.63 13.02 10.40 13.08 10.08L13.76 6.16L10.89 6.16L10.12 10.50C9.99 11.24 10.08 11.80 10.39 12.18C10.70 12.56 11.30 12.75 12.19 12.75C13.06 12.75 13.76 12.37 14.28 11.61L14.10 12.60L16.83 12.60L17.96 6.16L15.23 6.16ZM20.17 3.92L19.78 6.16L18.73 6.16L18.35 8.33L19.40 8.33L18.65 12.60L21.24 12.60L21.99 8.33L23.04 8.33L23.42 6.16L22.37 6.16L22.76 3.92ZM26.52 8.51C26.66 8.01 26.96 7.76 27.44 7.76C27.70 7.76 27.86 7.83 27.93 7.98C28.00 8.13 28.00 8.36 27.94 8.68L27.26 12.60L29.99 12.60L30.76 8.26C30.89 7.50 30.81 6.94 30.53 6.57C30.25 6.19 29.64 6.01 28.69 6.01C27.90 6.01 27.26 6.38 26.75 7.13L27.72 1.68L24.99 1.68L23.06 12.60L25.79 12.60ZM37.45 6.16L37.23 7.39C36.93 6.48 36.23 6.02 35.14 6.02C34.76 6.02 34.36 6.11 33.95 6.29C33.54 6.46 33.16 6.71 32.81 7.03C32.46 7.36 32.17 7.77 31.94 8.29C31.71 8.80 31.60 9.36 31.60 9.95C31.60 11.81 32.46 12.74 34.17 12.74C35.00 12.74 35.78 12.32 36.50 11.47L36.29 12.60L39.02 12.60L40.18 6.16ZM34.54 9.62C34.54 9.21 34.68 8.88 34.95 8.63C35.23 8.38 35.55 8.26 35.91 8.26C36.18 8.26 36.41 8.33 36.60 8.48C36.79 8.63 36.89 8.85 36.89 9.14C36.89 9.57 36.75 9.90 36.46 10.14C36.17 10.38 35.85 10.50 35.50 10.50C35.21 10.50 34.98 10.42 34.80 10.26C34.63 10.10 34.54 9.89 34.54 9.62ZM46.09 8.93L47.61 6.58C47.34 6.16 46.82 5.95 46.03 5.95C45.32 5.95 44.67 6.30 44.07 6.99L44.21 6.16L41.55 6.16L40.42 12.60L43.08 12.60L43.60 9.66C43.74 8.87 44.24 8.47 45.09 8.47C45.55 8.47 45.88 8.62 46.09 8.93ZM47.80 9.83L46.82 11.72C48.05 12.45 49.15 12.81 50.13 12.81C52.22 12.81 53.26 12.07 53.26 10.60C53.26 9.74 52.77 9.12 51.80 8.75C51.69 8.70 51.54 8.64 51.34 8.57C51.15 8.50 51.01 8.45 50.90 8.41C50.80 8.38 50.69 8.33 50.57 8.27C50.45 8.22 50.36 8.16 50.31 8.11C50.26 8.06 50.23 8.01 50.23 7.95C50.23 7.79 50.41 7.71 50.76 7.71C51.05 7.71 51.39 7.79 51.79 7.93C52.18 8.08 52.50 8.27 52.74 8.51L53.69 6.72C52.64 6.21 51.75 5.95 51.02 5.95C50.05 5.95 49.28 6.16 48.71 6.57C48.15 6.98 47.87 7.50 47.87 8.13C47.87 8.43 47.90 8.69 47.97 8.92C48.04 9.14 48.15 9.33 48.30 9.48C48.45 9.64 48.58 9.76 48.70 9.83C48.82 9.91 48.98 10.01 49.20 10.14C49.36 10.23 49.59 10.32 49.88 10.40C50.16 10.49 50.38 10.56 50.53 10.63C50.69 10.69 50.76 10.78 50.76 10.88C50.76 11.06 50.66 11.14 50.44 11.14C50.14 11.14 49.72 11.00 49.18 10.71C48.64 10.42 48.18 10.13 47.80 9.83ZM59.93 6.16L59.71 7.39C59.41 6.48 58.72 6.02 57.62 6.02C57.24 6.02 56.84 6.11 56.43 6.29C56.02 6.46 55.64 6.71 55.29 7.03C54.94 7.36 54.65 7.77 54.42 8.29C54.20 8.80 54.08 9.36 54.08 9.95C54.08 11.81 54.94 12.74 56.66 12.74C57.49 12.74 58.26 12.32 58.98 11.47L58.77 12.60L61.50 12.60L62.66 6.16ZM57.02 9.62C57.02 9.21 57.16 8.88 57.43 8.63C57.71 8.38 58.03 8.26 58.39 8.26C58.66 8.26 58.90 8.33 59.09 8.48C59.28 8.63 59.37 8.85 59.37 9.14C59.37 9.57 59.23 9.90 58.94 10.14C58.65 10.38 58.33 10.50 57.99 10.50C57.70 10.50 57.47 10.42 57.29 10.26C57.11 10.10 57.02 9.89 57.02 9.62ZM66.35 8.55C66.49 8.02 66.80 7.76 67.28 7.76C67.55 7.76 67.71 7.83 67.77 7.98C67.84 8.13 67.84 8.36 67.79 8.68L67.10 12.60L69.97 12.60L70.74 8.26C70.87 7.52 70.78 6.96 70.48 6.58C70.17 6.20 69.57 6.01 68.67 6.01C67.80 6.01 67.11 6.39 66.58 7.15L66.77 6.16L64.04 6.16L62.90 12.60L65.63 12.60ZM77.43 6.16L77.21 7.39C76.91 6.48 76.22 6.02 75.12 6.02C74.74 6.02 74.34 6.11 73.93 6.29C73.52 6.46 73.14 6.71 72.79 7.03C72.44 7.36 72.15 7.77 71.92 8.29C71.70 8.80 71.58 9.36 71.58 9.95C71.58 11.81 72.44 12.74 74.16 12.74C74.99 12.74 75.76 12.32 76.48 11.47L76.27 12.60L79.00 12.60L80.16 6.16ZM74.52 9.62C74.52 9.21 74.66 8.88 74.94 8.63C75.21 8.38 75.53 8.26 75.89 8.26C76.16 8.26 76.40 8.33 76.59 8.48C76.78 8.63 76.87 8.85 76.87 9.14C76.87 9.57 76.73 9.90 76.44 10.14C76.15 10.38 75.83 10.50 75.49 10.50C75.20 10.50 74.97 10.42 74.79 10.26C74.61 10.10 74.52 9.89 74.52 9.62ZM83.85 8.55C83.99 8.02 84.30 7.76 84.78 7.76C85.05 7.76 85.21 7.83 85.27 7.98C85.34 8.13 85.34 8.36 85.29 8.68L84.60 12.60L87.47 12.60L88.24 8.26C88.37 7.52 88.28 6.96 87.98 6.58C87.67 6.20 87.07 6.01 86.17 6.01C85.30 6.01 84.61 6.39 84.08 7.15L84.27 6.16L81.54 6.16L80.40 12.60L83.13 12.60ZM95.21 8.74L93.04 10.11C93.20 10.89 93.68 11.53 94.48 12.01C95.28 12.50 96.17 12.74 97.15 12.74C100.17 12.74 101.68 11.68 101.68 9.55C101.68 9.16 101.60 8.79 101.44 8.43C101.27 8.09 101.06 7.79 100.79 7.55C100.53 7.30 100.27 7.10 100.03 6.94C99.79 6.77 99.54 6.64 99.29 6.54C99.16 6.48 98.98 6.41 98.75 6.31C98.52 6.22 98.35 6.15 98.25 6.10C98.14 6.06 98.02 5.99 97.89 5.91C97.77 5.84 97.68 5.76 97.64 5.68C97.59 5.60 97.57 5.50 97.57 5.39C97.57 4.98 97.88 4.77 98.50 4.77C98.87 4.77 99.17 4.85 99.40 5.00C99.63 5.16 99.85 5.43 100.06 5.82L102.40 4.70C102.27 4.13 101.90 3.63 101.28 3.18C100.65 2.74 99.81 2.52 98.76 2.52C97.51 2.52 96.52 2.80 95.77 3.35C95.02 3.91 94.64 4.67 94.64 5.63C94.64 6.81 95.39 7.74 96.89 8.40C97.47 8.66 97.92 8.91 98.24 9.13C98.56 9.36 98.71 9.59 98.71 9.83C98.71 10.25 98.30 10.46 97.47 10.46C96.99 10.46 96.55 10.30 96.13 9.99C95.72 9.68 95.41 9.26 95.21 8.74ZM108.19 2.80L106.47 12.60L108.99 12.60L109.55 9.38L110.50 9.38L112.14 12.60L114.87 12.60L113.09 9.09C113.89 8.82 114.52 8.38 114.97 7.78C115.42 7.19 115.64 6.46 115.64 5.61C115.64 3.74 114.35 2.80 111.76 2.80ZM110.31 5.11L111.64 5.11C112.08 5.11 112.41 5.16 112.62 5.27C112.83 5.38 112.94 5.57 112.94 5.84C112.94 6.75 112.38 7.21 111.27 7.21L109.94 7.21Z"></path></g><!----><g data-v-423bf9ae="" id="d9109996-35dd-45ce-98d9-b47f736d4ea8" transform="matrix(1.0868111504448785,0,0,1.0868111504448785,-13.255261890115804,-0.23894260335429607)" stroke="none" fill="black"><g clip-rule="evenodd"><path d="M12.983 10.59l17.018 88.223-5.872-59.049 29.021-1.892-.054-9.883L64.549 1 53.622 18.977z"></path><path d="M59.389 54.548l5.16-53.541-8.74 39.716-19.612 1.045 1.57 20.462-7.766 36.583 12.057-39.899z"></path><path d="M62.8 67.182l.549-10.453-15.979 3.755-.032 11.797-17.337 26.532 21.68-27.616zM65.711 62.394l14.841-4.731 1.509-12.532-15.899 2.095zM72.07 44.502l10.988-1.417 1.581-10.278-8.079-.373L64.549 1l8.43 30.967z"></path><path d="M87.413 31.294l1.256-9.506-9.544-2.694L64.549 1l14.483 22.437-.422 7z"></path></g></g><!----></svg>